# Blender v2.81 (sub 16) OBJ File: ''
# www.blender.org
mtllib Bomb.mtl
o Mesh.469_DrawCall_317
v -0.000029 0.440820 0.008678
v -0.318551 0.444035 -0.176429
v -0.367824 0.440820 0.008678
v -0.183906 0.256332 0.325786
v -0.525140 0.092518 0.307082
v -0.303200 0.088635 0.530509
v -0.606370 0.097817 0.001884
v -0.318551 0.258688 0.190238
v -0.367824 0.261903 0.005132
v 0.303141 0.107000 -0.526740
v -0.000029 0.268335 -0.365124
v 0.183847 0.267474 -0.315522
v 0.525081 0.103116 -0.303313
v 0.318492 0.265118 -0.179975
v -0.183906 0.435249 0.329332
v -0.318551 0.437605 0.193785
v -0.000029 0.087211 0.612285
v -0.367824 -0.211393 0.637293
v -0.000029 -0.213113 0.736498
v -0.735619 -0.200250 -0.004014
v -0.637072 -0.206682 0.366242
v 0.637013 -0.193819 -0.374271
v 0.367766 -0.189107 -0.645322
v 0.735561 -0.200250 -0.004014
v -0.000029 -0.545904 0.669170
v 0.367766 -0.211393 0.637293
v -0.637072 -0.193819 -0.374271
v -0.584829 -0.528193 -0.350517
v -0.675303 -0.534093 -0.010623
v 0.226512 -0.785298 -0.410750
v 0.337608 -0.523868 -0.599335
v 0.584770 -0.528193 -0.350517
v 0.584770 -0.539994 0.329271
v 0.226512 -0.799026 0.379284
v 0.392361 -0.796121 0.212322
v -0.226571 -0.785298 -0.410750
v -0.000029 -0.784236 -0.471891
v -0.000029 -0.925229 -0.018365
v -0.000029 0.255471 0.375388
v -0.000029 0.434388 0.378934
v -0.318551 0.265118 -0.179975
v -0.183906 0.446392 -0.311976
v -0.183906 0.267474 -0.315522
v -0.000029 0.447252 -0.361578
v 0.318492 0.444035 -0.176429
v 0.367766 0.440820 0.008678
v 0.367766 0.261903 0.005132
v 0.318492 0.437605 0.193785
v 0.318492 0.258688 0.190238
v 0.183847 0.435249 0.329332
v 0.183847 0.256332 0.325786
v 0.303141 0.088635 0.530509
v -0.525140 0.103116 -0.303313
v -0.303200 0.107000 -0.526740
v -0.367824 -0.189107 -0.645322
v -0.000029 0.108423 -0.608516
v -0.000029 -0.187387 -0.744527
v -0.000029 -0.522283 -0.690416
v -0.337666 -0.523868 -0.599335
v 0.606312 0.097817 0.001884
v 0.525081 0.092518 0.307082
v 0.637013 -0.206682 0.366242
v 0.183847 0.446392 -0.311976
v -0.000029 -0.800089 0.440425
v -0.226571 -0.799026 0.379284
v -0.392419 -0.796121 0.212322
v -0.584829 -0.539994 0.329271
v -0.337666 -0.544320 0.578089
v -0.453154 -0.792163 -0.015733
v -0.392419 -0.788204 -0.243788
v 0.675244 -0.534093 -0.010623
v 0.392361 -0.788204 -0.243788
v 0.453095 -0.792163 -0.015733
v 0.337608 -0.544320 0.578089
v 0.222672 0.836643 -0.107714
v -0.004550 0.719458 0.006310
v -0.000034 0.653500 -0.078225
v -0.208852 0.778232 -0.092571
v 0.078320 0.651121 0.058400
v -0.078397 0.651123 0.058403
v -0.000021 0.805536 0.272223
v 0.117534 0.561067 -0.057291
v -0.000020 0.557511 0.147684
v 0.232204 0.654483 0.155492
v -0.225761 0.671204 0.144484
v -0.000029 0.399918 0.007869
v -0.117579 0.561074 -0.057299
v -0.013325 0.695127 -0.271968
vt 0.206461 0.716002
vt 0.591351 0.938102
vt 0.650861 0.716122
vt 0.084485 0.210053
vt 0.093903 0.202780
vt 0.082957 0.202780
vt 0.102886 0.202780
vt 0.091843 0.210053
vt 0.098514 0.210053
vt 0.082957 0.202780
vt 0.077043 0.210053
vt 0.084485 0.210053
vt 0.093903 0.202780
vt 0.091843 0.210053
vt 0.650861 0.716122
vt 0.591351 0.938102
vt 0.072600 0.202780
vt 0.081836 0.189522
vt 0.069349 0.189522
vt 0.106054 0.189522
vt 0.095094 0.189522
vt 0.095094 0.189522
vt 0.081836 0.189522
vt 0.106054 0.189522
vt 0.070806 0.174722
vt 0.081836 0.189522
vt 0.095094 0.189522
vt 0.094590 0.174722
vt 0.105017 0.174722
vt 0.083630 0.163356
vt 0.082004 0.174722
vt 0.094590 0.174722
vt 0.094590 0.174722
vt 0.083630 0.163356
vt 0.092109 0.163356
vt 0.083630 0.163356
vt 0.074478 0.163356
vt 0.088003 0.157456
vt 0.672618 0.738943
vt 0.672618 0.846243
vt 0.772228 0.846243
vt 0.772228 0.738943
vt 0.672618 0.738943
vt 0.672618 0.846243
vt 0.772228 0.846243
vt 0.772228 0.738943
vt 0.672618 0.738943
vt 0.772228 0.846243
vt 0.772228 0.738943
vt 0.672618 0.846243
vt 0.672618 0.738943
vt 0.672618 0.738943
vt 0.672618 0.846243
vt 0.772228 0.846243
vt 0.772228 0.738943
vt 0.672618 0.846243
vt 0.672618 0.738943
vt 0.772228 0.846243
vt 0.772228 0.738943
vt 0.077043 0.210053
vt 0.082957 0.202780
vt 0.091843 0.210053
vt 0.093903 0.202780
vt 0.084485 0.210053
vt 0.082957 0.202780
vt 0.081836 0.189522
vt 0.072600 0.202780
vt 0.069349 0.189522
vt 0.070806 0.174722
vt 0.082004 0.174722
vt 0.098514 0.210053
vt 0.102886 0.202780
vt 0.091843 0.210053
vt 0.093903 0.202780
vt 0.084485 0.210053
vt 0.095094 0.189522
vt 0.591351 0.938102
vt 0.650861 0.716122
vt 0.074478 0.163356
vt 0.083630 0.163356
vt 0.092109 0.163356
vt 0.094590 0.174722
vt 0.082004 0.174722
vt 0.100406 0.163356
vt 0.092109 0.163356
vt 0.105017 0.174722
vt 0.092109 0.163356
vt 0.650861 0.716122
vt 0.650861 0.716122
vt 0.591351 0.938102
vt 0.591351 0.938102
vt 0.100406 0.163356
vt 0.082004 0.174722
vt 0.672618 0.846243
vt 0.772228 0.846243
vt 0.772228 0.738943
vt 0.650861 0.716122
vt 0.591351 0.938102
vt 0.636350 0.305300
vt 0.797910 0.265440
vt 0.764590 0.202210
vt 0.831120 0.270510
vt 0.764590 0.202210
vt 0.859500 0.234130
vt 0.831120 0.270510
vt 0.725710 0.126400
vt 0.860960 0.171630
vt 0.812380 0.222470
vt 0.952210 0.271120
vt 0.847470 0.059020
vt 0.860960 0.171630
vt 0.812380 0.222470
vn 0.0000 0.9998 0.0174
vn -0.6563 0.6603 -0.3650
vn -0.7569 0.6534 0.0116
vn -0.4352 0.4872 0.7571
vn -0.6845 0.6071 0.4036
vn -0.3962 0.6026 0.6928
vn -0.7892 0.6140 0.0108
vn -0.7514 0.4922 0.4394
vn -0.8661 0.4999 0.0085
vn 0.3956 0.6282 -0.6700
vn 0.0000 0.5184 -0.8551
vn 0.4343 0.5156 -0.7385
vn 0.6839 0.6218 -0.3815
vn 0.7506 0.5086 -0.4218
vn -0.3805 0.6408 0.6667
vn -0.6568 0.6463 0.3885
vn 0.0000 0.6010 0.7992
vn -0.4990 0.0935 0.8615
vn 0.0000 0.0910 0.9958
vn -0.9939 0.1098 0.0019
vn -0.8620 0.1003 0.4968
vn 0.8618 0.1196 -0.4929
vn 0.4989 0.1270 -0.8573
vn 0.9939 0.1098 0.0019
vn 0.0000 -0.4334 0.9012
vn 0.4990 0.0935 0.8615
vn -0.8618 0.1196 -0.4929
vn -0.7894 -0.4060 -0.4604
vn -0.9101 -0.4142 -0.0073
vn 0.2878 -0.8110 -0.5093
vn 0.4570 -0.4004 -0.7942
vn 0.7894 -0.4060 -0.4604
vn 0.7888 -0.4234 0.4454
vn 0.2873 -0.8290 0.4797
vn 0.4968 -0.8246 0.2705
vn -0.2878 -0.8110 -0.5093
vn 0.0000 -0.8099 -0.5865
vn 0.0000 -0.9998 -0.0175
vn 0.0000 0.4855 0.8742
vn 0.0000 0.6387 0.7694
vn -0.7506 0.5086 -0.4218
vn -0.3801 0.6651 -0.6427
vn -0.4343 0.5156 -0.7385
vn 0.0000 0.6668 -0.7452
vn 0.6563 0.6603 -0.3650
vn 0.7569 0.6534 0.0116
vn 0.8661 0.4999 0.0085
vn 0.6568 0.6463 0.3885
vn 0.7514 0.4922 0.4394
vn 0.3805 0.6408 0.6667
vn 0.4352 0.4872 0.7571
vn 0.3962 0.6026 0.6928
vn -0.6839 0.6218 -0.3815
vn -0.3956 0.6282 -0.6700
vn -0.4989 0.1270 -0.8573
vn 0.0000 0.6306 -0.7761
vn 0.0000 0.1297 -0.9915
vn 0.0000 -0.3985 -0.9172
vn -0.4570 -0.4004 -0.7942
vn 0.7892 0.6140 0.0108
vn 0.6845 0.6071 0.4036
vn 0.8620 0.1003 0.4968
vn 0.3801 0.6651 -0.6427
vn 0.0000 -0.8307 0.5567
vn -0.2873 -0.8290 0.4797
vn -0.4968 -0.8246 0.2705
vn -0.7888 -0.4234 0.4454
vn -0.4564 -0.4306 0.7786
vn -0.5735 -0.8191 -0.0143
vn -0.4973 -0.8142 -0.2995
vn 0.9101 -0.4142 -0.0073
vn 0.4973 -0.8142 -0.2995
vn 0.5735 -0.8191 -0.0143
vn 0.4564 -0.4306 0.7786
vn -0.6315 -0.7017 0.3300
vn 0.0672 -0.9977 0.0087
vn 0.0161 -0.7841 0.6204
vn 0.7082 -0.6187 0.3401
vn -0.6036 -0.7142 -0.3544
vn 0.5708 -0.7518 -0.3300
vn -0.0022 -0.6312 -0.7756
vn -0.8073 0.3281 0.4905
vn 0.0303 0.3625 -0.9315
vn -0.7811 -0.3876 -0.4895
vn 0.7642 -0.4597 -0.4523
vn 0.0111 0.9996 0.0238
vn 0.8224 0.3427 0.4540
vn 0.0468 -0.5018 0.8637
usemtl texture.png
s 1
f 1/1/1 2/2/2 3/3/3
f 4/4/4 5/5/5 6/6/6
f 7/7/7 8/8/8 9/9/9
f 10/10/10 11/11/11 12/12/12
f 10/10/10 12/12/12 13/13/13
f 14/14/14 13/13/13 12/12/12
f 15/15/15 1/1/1 16/16/16
f 17/17/17 6/6/6 18/18/18
f 17/17/17 18/18/18 19/19/19
f 5/5/5 7/7/7 20/20/20
f 5/5/5 20/20/20 21/21/21
f 22/22/22 23/23/23 10/10/10
f 22/22/22 10/10/10 13/13/13
f 13/13/13 24/24/24 22/22/22
f 19/19/19 25/25/25 26/26/26
f 20/20/20 27/27/27 28/28/28
f 20/20/20 28/28/28 29/29/29
f 30/30/30 31/31/31 32/32/32
f 33/33/33 34/34/34 35/35/35
f 36/36/36 37/37/37 38/38/38
f 39/39/39 40/40/40 15/41/15
f 39/39/39 15/41/15 4/42/4
f 8/43/8 16/44/16 3/45/3
f 8/43/8 3/45/3 9/46/9
f 3/45/3 41/47/41 9/46/9
f 41/47/41 42/48/42 43/49/43
f 42/48/42 44/50/44 11/51/11
f 14/52/14 45/53/45 46/54/46
f 14/52/14 46/54/46 47/55/47
f 46/54/46 48/56/48 49/57/49
f 49/57/49 48/56/48 50/58/50
f 49/57/49 50/58/50 51/59/51
f 50/58/50 39/39/39 51/59/51
f 39/60/39 17/17/17 52/61/52
f 17/17/17 26/26/26 52/61/52
f 41/62/41 53/63/53 7/7/7
f 53/63/53 27/27/27 20/20/20
f 43/64/43 54/65/54 53/63/53
f 54/65/54 55/66/55 27/27/27
f 43/64/43 11/11/11 54/65/54
f 11/11/11 56/67/56 54/65/54
f 54/65/54 56/67/56 55/66/55
f 56/67/56 57/68/57 55/66/55
f 23/23/23 58/69/58 57/68/57
f 57/68/57 58/69/58 55/66/55
f 59/70/59 28/28/28 27/27/27
f 14/14/14 47/71/47 60/72/60
f 47/71/47 49/73/49 60/72/60
f 60/72/60 49/73/49 61/74/61
f 61/74/61 51/75/51 52/61/52
f 51/75/51 39/60/39 52/61/52
f 60/72/60 61/74/61 24/24/24
f 24/24/24 62/76/62 33/33/33
f 45/77/45 63/78/63 1/1/1
f 19/19/19 18/18/18 25/25/25
f 64/79/64 65/80/65 38/38/38
f 65/80/65 66/81/66 38/38/38
f 21/21/21 67/82/67 68/83/68
f 68/83/68 67/82/67 65/80/65
f 67/82/67 29/29/29 66/81/66
f 69/84/69 70/85/70 38/38/38
f 58/69/58 23/23/23 31/31/31
f 23/23/23 22/22/22 31/31/31
f 22/22/22 24/24/24 32/32/32
f 32/32/32 24/24/24 71/86/71
f 37/37/37 36/36/36 59/70/59
f 59/70/59 36/36/36 28/28/28
f 36/36/36 70/85/70 28/28/28
f 28/28/28 70/85/70 29/29/29
f 70/85/70 69/84/69 29/29/29
f 31/31/31 30/30/30 37/37/37
f 37/37/37 30/30/30 38/38/38
f 30/30/30 72/87/72 38/38/38
f 3/3/3 16/16/16 1/1/1
f 1/1/1 42/88/42 2/2/2
f 46/89/46 45/77/45 1/1/1
f 46/89/46 1/1/1 48/90/48
f 4/4/4 8/8/8 5/5/5
f 7/7/7 5/5/5 8/8/8
f 14/14/14 60/72/60 13/13/13
f 15/15/15 40/91/40 1/1/1
f 21/21/21 18/18/18 6/6/6
f 21/21/21 6/6/6 5/5/5
f 13/13/13 60/72/60 24/24/24
f 19/19/19 26/26/26 17/17/17
f 30/30/30 32/32/32 72/87/72
f 35/35/35 73/92/73 71/86/71
f 35/35/35 71/86/71 33/33/33
f 33/33/33 74/93/74 34/34/34
f 64/79/64 34/34/34 74/93/74
f 64/79/64 74/93/74 25/25/25
f 36/36/36 38/38/38 70/85/70
f 34/34/34 64/79/64 38/38/38
f 34/34/34 38/38/38 35/35/35
f 15/41/15 16/44/16 8/43/8
f 15/41/15 8/43/8 4/42/4
f 3/45/3 2/94/2 41/47/41
f 41/47/41 2/94/2 42/48/42
f 42/48/42 11/51/11 43/49/43
f 11/51/11 44/50/44 63/95/63
f 11/51/11 63/95/63 12/96/12
f 63/95/63 45/53/45 14/52/14
f 63/95/63 14/52/14 12/96/12
f 46/54/46 49/57/49 47/55/47
f 50/58/50 40/40/40 39/39/39
f 50/97/50 48/90/48 1/1/1
f 50/97/50 1/1/1 40/91/40
f 61/74/61 52/61/52 62/76/62
f 52/61/52 26/26/26 62/76/62
f 62/76/62 26/26/26 74/93/74
f 26/26/26 25/25/25 74/93/74
f 4/4/4 6/6/6 39/60/39
f 6/6/6 17/17/17 39/60/39
f 9/9/9 41/62/41 7/7/7
f 7/7/7 53/63/53 20/20/20
f 41/62/41 43/64/43 53/63/53
f 53/63/53 54/65/54 27/27/27
f 11/11/11 10/10/10 56/67/56
f 10/10/10 23/23/23 56/67/56
f 56/67/56 23/23/23 57/68/57
f 58/69/58 59/70/59 55/66/55
f 55/66/55 59/70/59 27/27/27
f 49/73/49 51/75/51 61/74/61
f 61/74/61 62/76/62 24/24/24
f 62/76/62 74/93/74 33/33/33
f 63/78/63 44/98/44 1/1/1
f 1/1/1 44/98/44 42/88/42
f 18/18/18 68/83/68 25/25/25
f 25/25/25 68/83/68 64/79/64
f 68/83/68 65/80/65 64/79/64
f 18/18/18 21/21/21 68/83/68
f 67/82/67 66/81/66 65/80/65
f 21/21/21 20/20/20 67/82/67
f 20/20/20 29/29/29 67/82/67
f 29/29/29 69/84/69 66/81/66
f 66/81/66 69/84/69 38/38/38
f 31/31/31 22/22/22 32/32/32
f 24/24/24 33/33/33 71/86/71
f 58/69/58 37/37/37 59/70/59
f 58/69/58 31/31/31 37/37/37
f 32/32/32 71/86/71 72/87/72
f 71/86/71 73/92/73 72/87/72
f 72/87/72 73/92/73 38/38/38
f 73/92/73 35/35/35 38/38/38
f 75/99/75 76/100/76 77/101/77
f 77/101/77 76/100/76 78/102/78
f 79/103/79 76/100/76 75/99/75
f 80/104/80 76/100/76 81/105/81
f 75/99/75 77/101/77 82/106/82
f 81/105/81 79/103/79 83/107/83
f 83/107/83 79/103/79 84/108/84
f 84/108/84 79/103/79 82/106/82
f 85/109/85 80/104/80 83/107/83
f 85/109/85 83/107/83 86/110/86
f 87/111/87 85/109/85 86/110/86
f 88/112/88 87/111/87 86/110/86
f 82/106/82 88/112/88 86/110/86
f 81/105/81 76/100/76 79/103/79
f 78/102/78 76/100/76 80/104/80
f 82/106/82 77/101/77 88/112/88
f 78/102/78 80/104/80 87/111/87
f 87/111/87 80/104/80 85/109/85
f 79/103/79 75/99/75 82/106/82
f 84/108/84 82/106/82 86/110/86
f 83/107/83 84/108/84 86/110/86
f 80/104/80 81/105/81 83/107/83
f 77/101/77 78/102/78 87/111/87
f 88/112/88 77/101/77 87/111/87
